<svg width="122" height="23" viewBox="0 0 122 23" fill="none" xmlns="http://www.w3.org/2000/svg">
<path d="M1.70375 0.579999V2.32H14.8438L0.74375 20.2V22H17.4238V20.26H3.02375L17.1237 2.38V0.579999H1.70375ZM19.7703 0.579999V14.29C19.7703 15.39 19.9203 16.44 20.2203 17.44C20.5403 18.42 21.0303 19.28 21.6903 20.02C22.3703 20.76 23.2303 21.35 24.2703 21.79C25.3303 22.21 26.6003 22.42 28.0803 22.42C29.5803 22.42 30.8503 22.21 31.8903 21.79C32.9503 21.35 33.8103 20.76 34.4703 20.02C35.1503 19.28 35.6403 18.42 35.9403 17.44C36.2603 16.44 36.4203 15.39 36.4203 14.29V0.579999H34.3803V13.84C34.3803 15.08 34.2403 16.14 33.9603 17.02C33.6803 17.88 33.2703 18.59 32.7303 19.15C32.1903 19.69 31.5303 20.09 30.7503 20.35C29.9703 20.59 29.0803 20.71 28.0803 20.71C27.1003 20.71 26.2203 20.59 25.4403 20.35C24.6603 20.09 24.0003 19.69 23.4603 19.15C22.9203 18.59 22.5103 17.88 22.2303 17.02C21.9503 16.14 21.8103 15.08 21.8103 13.84V0.579999H19.7703ZM46.587 0.579999V2.32H54.027V22H56.067V2.32H63.537V0.579999H46.587ZM65.537 0.579999V22H80.477V20.26H67.577V11.8H79.517V10.06H67.577V2.32H80.327V0.579999H65.537ZM98.9802 7.06H101.02C100.88 5.94 100.54 4.95 100 4.09C99.4802 3.23 98.8202 2.51 98.0202 1.93C97.2402 1.33 96.3602 0.879998 95.3802 0.579999C94.4202 0.279999 93.4302 0.129999 92.4102 0.129999C90.7302 0.129999 89.2502 0.439999 87.9702 1.06C86.7102 1.66 85.6602 2.48 84.8202 3.52C83.9802 4.54 83.3502 5.72 82.9302 7.06C82.5102 8.4 82.3002 9.81 82.3002 11.29C82.3002 12.77 82.5102 14.18 82.9302 15.52C83.3502 16.86 83.9802 18.04 84.8202 19.06C85.6602 20.08 86.7102 20.9 87.9702 21.52C89.2502 22.12 90.7302 22.42 92.4102 22.42C93.6702 22.42 94.8102 22.22 95.8302 21.82C96.8702 21.42 97.7702 20.85 98.5302 20.11C99.2902 19.37 99.9102 18.47 100.39 17.41C100.87 16.35 101.18 15.16 101.32 13.84H99.2802C99.1802 14.8 98.9502 15.7 98.5902 16.54C98.2302 17.36 97.7602 18.08 97.1802 18.7C96.6002 19.32 95.9102 19.81 95.1102 20.17C94.3102 20.53 93.4102 20.71 92.4102 20.71C90.9902 20.71 89.7702 20.44 88.7502 19.9C87.7302 19.36 86.8902 18.65 86.2302 17.77C85.5902 16.87 85.1102 15.86 84.7902 14.74C84.4902 13.6 84.3402 12.45 84.3402 11.29C84.3402 10.11 84.4902 8.96 84.7902 7.84C85.1102 6.72 85.5902 5.72 86.2302 4.84C86.8902 3.94 87.7302 3.22 88.7502 2.68C89.7702 2.14 90.9902 1.87 92.4102 1.87C93.1902 1.87 93.9302 1.99 94.6302 2.23C95.3502 2.45 96.0002 2.78 96.5802 3.22C97.1802 3.66 97.6802 4.21 98.0802 4.87C98.5002 5.51 98.8002 6.24 98.9802 7.06ZM104.443 0.579999V22H106.483V11.62H119.203V22H121.243V0.579999H119.203V9.88H106.483V0.579999H104.443Z" fill="#4E4E4E"/>
</svg>
