<svg width="100" height="100" viewBox="0 0 100 100" fill="none" xmlns="http://www.w3.org/2000/svg">
<path d="M53.6265 50.7293C52.3801 49.3363 50.6481 48.5574 48.4304 48.3924C50.4098 47.8563 51.8394 47.0728 52.7467 46.0143C53.654 44.9558 54.0938 43.5675 54.0938 41.7942C54.1165 40.4951 53.8041 39.2121 53.1866 38.0689C52.562 36.9876 51.6479 36.1021 50.5473 35.5121C49.5438 34.9622 48.3479 34.5636 46.9458 34.3299C45.5436 34.0962 43.083 34 39.564 34H31V65.2317H39.8251C43.3717 65.2317 45.9285 65.1125 47.4956 64.8743C49.0627 64.6268 50.3686 64.2144 51.4271 63.6508C52.7006 62.9912 53.7486 61.9671 54.4375 60.7091C55.1386 59.4445 55.496 57.9736 55.496 56.2966C55.496 53.9734 54.8774 52.1177 53.6265 50.7293ZM38.9179 40.9144H40.7462C42.8631 40.9144 44.2835 41.1527 45.0075 41.6292C45.7361 42.1103 46.0935 42.9351 46.0935 44.1036C46.0935 45.272 45.6948 46.028 44.925 46.4954C44.1552 46.9628 42.7119 47.1827 40.6087 47.1827H38.9179V40.9144V40.9144ZM46.176 58.8259C45.3374 59.3345 43.9078 59.5819 41.9008 59.5819H38.9179V52.7775H42.0246C44.0865 52.7775 45.5161 53.0387 46.2722 53.561C47.0282 54.0834 47.4269 54.9907 47.4269 56.3103C47.4269 57.63 47.0145 58.331 46.1622 58.8396L46.176 58.8259Z" fill="#00A4DE"/>
<path d="M64.541 57.3275C63.758 57.3275 62.9926 57.5597 62.3415 57.9947C61.6905 58.4298 61.183 59.0481 60.8834 59.7715C60.5837 60.4949 60.5053 61.2909 60.6581 62.0588C60.8109 62.8268 61.1879 63.5322 61.7416 64.0859C62.2952 64.6396 63.0007 65.0166 63.7686 65.1694C64.5366 65.3221 65.3326 65.2437 66.056 64.9441C66.7794 64.6444 67.3977 64.137 67.8327 63.486C68.2677 62.8349 68.4999 62.0695 68.4999 61.2865C68.4999 60.2365 68.0828 59.2295 67.3404 58.4871C66.5979 57.7446 65.591 57.3275 64.541 57.3275Z" fill="#00A4DE"/>
<path d="M67.9777 34H61.1045V54.8285H67.9777V34Z" fill="#00A4DE"/>
<circle cx="50" cy="50" r="48.5" stroke="#00A4DE" stroke-width="3"/>
</svg>
