<svg width="100" height="100" viewBox="0 0 100 100" fill="none" xmlns="http://www.w3.org/2000/svg">
<circle cx="50" cy="50" r="47.5" fill="#EF4056" stroke="#EF4056" stroke-width="5"/>
<path d="M34.2803 33C32.237 33.1332 31 34.2996 31 36.3742V48.7985C31 58.8898 41.0365 66.8204 49.7187 66.7577C59.4812 66.6873 68.5 58.4436 68.5 48.7985V36.3742C68.5 34.2917 67.1848 33.1174 65.1258 33H34.2803ZM42.1874 43.107L49.7187 50.2625L57.2578 43.107C60.632 41.69 62.1038 45.5417 60.7181 46.6691L50.9009 56.0401C50.5799 56.3455 48.8654 56.3455 48.5444 56.0401L38.7271 46.669C37.4039 45.4242 39.1263 41.5099 42.1874 43.107Z" fill="white"/>
</svg>
