<svg width="100" height="100" viewBox="0 0 100 100" fill="none" xmlns="http://www.w3.org/2000/svg">
<circle cx="50" cy="50" r="47.5" fill="#1DA1F2" stroke="#1DA1F2" stroke-width="5"/>
<path d="M42.7656 65.4917C56.9259 65.4917 64.6686 53.758 64.6686 43.5888C64.6686 43.2535 64.6686 42.9183 64.6526 42.599C66.1533 41.5134 67.4623 40.1565 68.5 38.6079C67.1271 39.2146 65.6424 39.6296 64.0779 39.8212C65.6743 38.8633 66.8876 37.3627 67.4623 35.5587C65.9776 36.4368 64.3333 37.0754 62.5773 37.4266C61.1724 35.9259 59.1769 35 56.9579 35C52.7114 35 49.2631 38.4483 49.2631 42.6948C49.2631 43.3014 49.3269 43.8921 49.4706 44.4508C43.069 44.1315 37.4017 41.0664 33.6022 36.4049C32.9476 37.5383 32.5645 38.8633 32.5645 40.2682C32.5645 42.9342 33.9215 45.2969 35.9968 46.6699C34.7356 46.6379 33.5543 46.2867 32.5166 45.712C32.5166 45.7439 32.5166 45.7759 32.5166 45.8078C32.5166 49.5434 35.1667 52.6405 38.6948 53.3589C38.0562 53.5345 37.3697 53.6303 36.6673 53.6303C36.1724 53.6303 35.6935 53.5824 35.2146 53.4866C36.1884 56.5517 39.03 58.7708 42.3985 58.8346C39.7644 60.894 36.4438 62.1232 32.8359 62.1232C32.2133 62.1232 31.6066 62.0913 31 62.0115C34.3685 64.2146 38.4234 65.4917 42.7656 65.4917Z" fill="white"/>
</svg>
